<svg width="24" height="24" viewBox="0 0 24 24" fill="none" xmlns="http://www.w3.org/2000/svg">
<path fill-rule="evenodd" clip-rule="evenodd" d="M12 21.6C14.5461 21.6 16.9879 20.5886 18.7882 18.7883C20.5886 16.9879 21.6 14.5461 21.6 12C21.6 9.45395 20.5886 7.01215 18.7882 5.2118C16.9879 3.41145 14.5461 2.40002 12 2.40002C9.45392 2.40002 7.01213 3.41145 5.21178 5.2118C3.41143 7.01215 2.4 9.45395 2.4 12C2.4 14.5461 3.41143 16.9879 5.21178 18.7883C7.01213 20.5886 9.45392 21.6 12 21.6V21.6ZM8.4 10.8H6V13.2H8.4V10.8ZM18 10.8H15.6V13.2H18V10.8ZM10.8 10.8H13.2V13.2H10.8V10.8Z" fill="black"/>
</svg>
