<svg width="14" height="14" viewBox="0 0 14 14" fill="none" xmlns="http://www.w3.org/2000/svg">
<path d="M6.70384 1.62683H4.52276C2.72901 1.62683 1.60434 2.89675 1.60434 4.69458V9.54441C1.60434 11.3422 2.72376 12.6122 4.52276 12.6122H9.67009C11.4697 12.6122 12.5891 11.3422 12.5891 9.54441V7.19475" stroke="black" stroke-linecap="round" stroke-linejoin="round"/>
<path fill-rule="evenodd" clip-rule="evenodd" d="M5.14955 6.37049L9.5088 2.01125C10.0519 1.46875 10.9321 1.46875 11.4752 2.01125L12.1851 2.72116C12.7282 3.26425 12.7282 4.14508 12.1851 4.68758L7.80488 9.06783C7.56747 9.30525 7.24547 9.43883 6.90947 9.43883H4.7243L4.77913 7.23383C4.7873 6.9095 4.91972 6.60033 5.14955 6.37049Z" stroke="black" stroke-linecap="round" stroke-linejoin="round"/>
<path d="M8.84637 2.68481L11.5099 5.34831" stroke="black" stroke-linecap="round" stroke-linejoin="round"/>
</svg>
