<svg width="10" height="10" viewBox="0 0 10 10" fill="none" xmlns="http://www.w3.org/2000/svg">
<path d="M5.72083 1.46248L6.45417 2.92914C6.55417 3.13331 6.82083 3.32914 7.04583 3.36664L8.375 3.58748C9.225 3.72914 9.425 4.34581 8.8125 4.95414L7.77917 5.98748C7.60417 6.16248 7.50833 6.49998 7.5625 6.74164L7.85833 8.02081C8.09167 9.03331 7.55417 9.42498 6.65833 8.89581L5.4125 8.15831C5.1875 8.02498 4.81667 8.02498 4.5875 8.15831L3.34167 8.89581C2.45 9.42498 1.90833 9.02914 2.14167 8.02081L2.4375 6.74164C2.49167 6.49998 2.39583 6.16248 2.22083 5.98748L1.1875 4.95414C0.579167 4.34581 0.775 3.72914 1.625 3.58748L2.95417 3.36664C3.175 3.32914 3.44167 3.13331 3.54167 2.92914L4.275 1.46248C4.675 0.666642 5.325 0.666642 5.72083 1.46248Z" fill="#FBBE21"/>
</svg>
